<?xml version="1.0" encoding="utf-8"?>
<!-- Generator: Adobe Illustrator 21.1.0, SVG Export Plug-In . SVG Version: 6.00 Build 0)  -->
<svg version="1.1" id="Laag_1" xmlns="http://www.w3.org/2000/svg" xmlns:xlink="http://www.w3.org/1999/xlink" x="0px" y="0px"
	 width="40px" height="80px" viewBox="0 0 40 80" style="enable-background:new 0 0 40 80;" xml:space="preserve">
<path d="M104.6-21.6c-4.8,0-7.1-1-9.6-2c-2.6-1.1-5.2-2.2-10.4-2.2s-7.9,1.1-10.4,2.2c-2.5,1-4.8,2-9.6,2v2.1
	c5.2,0,7.8-1.1,10.4-2.2c2.5-1,4.8-2,9.6-2c4.8,0,7.1,1,9.6,2c2.6,1.1,5.2,2.2,10.4,2.2V-21.6z"/>
<path d="M144.8,20.5v-1.6c-4.8,0-7.1-1-9.6-2c-2.6-1.1-5.2-2.2-10.4-2.2s-7.9,1.1-10.4,2.2c-2.5,1-4.8,2-9.6,2v1.6h-1v58.8h42.3
	V20.5H144.8z"/>
<path d="M117.9-41.6c-2.5,1.2-4.2,3.4-5.7,5.3c-2.3,2.9-4.5,5.6-8.7,5.6s-6.4-2.7-8.7-5.6c-2.4-3-5.1-6.4-10.3-6.4
	s-7.9,3.4-10.3,6.4c-2.3,2.9-4.5,5.6-8.7,5.6s-6.4-2.7-8.7-5.6c-2.2-2.8-4.7-5.9-9.2-6.3c0,0.7,0,1.3,0,2c3.6,0.4,5.6,2.9,7.7,5.6
	c2.4,3,5.1,6.4,10.3,6.4S73.3-32,75.7-35c2.3-2.9,4.5-5.6,8.7-5.6s6.4,2.7,8.7,5.6c2.4,3,5.1,6.4,10.3,6.4s7.9-3.4,10.3-6.4
	c1.4-1.8,2.8-3.5,4.6-4.6C118.2-40.3,118-40.9,117.9-41.6z"/>
<path d="M22.9-51.9c-4.3,0-6.4-2.7-8.7-5.6c-2.4-3-5.1-6.4-10.3-6.4S-4-60.5-6.4-57.5c-2.3,2.9-4.4,5.6-8.7,5.6v2
	c5.2,0,7.9-3.4,10.3-6.4c2.3-2.9,4.5-5.6,8.7-5.6s6.4,2.7,8.7,5.6c2.4,3,5.1,6.4,10.3,6.4V-51.9z"/>
<path d="M93.8,4c-4.5,0-6.8-2.9-9.2-5.9C82.1-5,79.3-8.6,73.7-8.6S65.4-5,62.9-1.9c-2.4,3-4.7,5.9-9.2,5.9v2.1
	c5.5,0,8.3-3.6,10.8-6.7c2.4-3,4.7-5.9,9.2-5.9c4.5,0,6.8,2.9,9.2,5.9c2.5,3.1,5.3,6.7,10.8,6.7V4z"/>
<path d="M30.8,8.5C28.3,5.4,25.5,1.8,20,1.8c-5.5,0-8.3,3.6-10.8,6.7c-2.4,3-4.7,5.9-9.2,5.9v1v1.1v76.1h40V16.6v-1.1v-1
	C35.5,14.4,33.2,11.6,30.8,8.5z"/>
<path d="M-39.9-7.2c-4.5,0-6.8-2.9-9.2-5.9c-2.5-3.1-5.3-6.7-10.8-6.7s-8.3,3.6-10.8,6.7c-2.4,3-4.7,5.9-9.2,5.9v2.1
	c5.5,0,8.3-3.6,10.8-6.7c2.4-3,4.7-5.9,9.2-5.9s6.8,2.9,9.2,5.9c2.5,3.1,5.3,6.7,10.8,6.7V-7.2z"/>
<rect x="-79.9" y="-6.1" width="40" height="64"/>
<polygon points="-76.8,-6.7 -74,-8.1 -69.5,-13.2 -66.7,-16 -62.9,-18.2 -58.5,-18.5 -54.9,-17.4 -51.4,-14.5 -48.8,-11.2 
	-45.9,-7.9 -41.1,-6.4 -41.1,-2.5 -76.5,-1.5 "/>
</svg>
